<svg width="445" height="445" viewBox="0 0 445 445" fill="none" xmlns="http://www.w3.org/2000/svg">
<circle cx="222.5" cy="222.5" r="222.5" fill="url(#paint0_radial_6_3)"/>
<path d="M222.232 110.563V383.896M222.232 110.563C230.214 110.563 235.68 119.31 246.614 136.803L347.788 298.439C355.578 310.889 359.774 317.599 358.749 323.572M222.232 110.563C214.265 110.563 208.798 119.31 197.851 136.803L96.6767 298.425C88.8867 310.875 84.691 317.586 85.716 323.572M222.232 383.896C225.007 383.896 227.644 382.83 232.906 380.726L334.08 340.313C348.881 334.396 356.289 331.444 358.366 325.061C358.521 324.572 358.649 324.075 358.749 323.572M222.232 383.896C219.458 383.896 216.82 382.83 211.559 380.726L110.384 340.313C95.5833 334.396 88.176 331.43 86.0987 325.061C85.9427 324.568 85.815 324.066 85.716 323.558M261.456 270.135L358.749 323.572M358.749 323.572L358.817 323.626M85.716 323.558L85.6477 323.613M85.716 323.558L183.023 270.121" stroke="#7B51A6" stroke-width="6" stroke-linecap="round" stroke-linejoin="round"/>
<path d="M222.473 85.9954C221.871 82.9084 220.75 72.9484 220.046 64.4233L219.864 62.2258L217.984 63.7057C216.95 64.5197 215.164 65.8961 214.016 66.7644C211.6 68.5917 205.046 73.7196 202.476 75.7936C201.506 76.5762 200.858 77.0283 201.035 76.7982C204.627 72.1394 208.022 68.078 212.639 62.9186C214.903 60.3879 216.66 58.2329 216.543 58.1298C216.426 58.0265 212.438 57.5928 207.679 57.1658C198.73 56.3627 193.847 55.8302 194.004 55.6746C194.099 55.58 203.583 54.6677 209.968 54.139C212.036 53.9677 214.333 53.7527 215.072 53.6611L216.417 53.4947L211.725 47.7154C209.145 44.5369 206.081 40.6082 204.916 38.9856C203.751 37.3627 202.687 35.9665 202.551 35.8829C202.415 35.7994 202.303 35.6083 202.303 35.4578C202.303 35.3072 203.312 36.0158 204.545 37.0318C208.786 40.5268 213.955 44.8115 216.978 47.3359C218.643 48.7273 220.05 49.8213 220.105 49.7676C220.159 49.7138 220.411 47.3484 220.665 44.5111C221.205 38.4695 222.469 26.5947 222.527 27.0106C223.578 34.5062 224.573 44.8019 224.573 48.1682C224.573 49.0818 224.673 49.8294 224.794 49.8294C224.916 49.8294 225.859 49.0792 226.891 48.1619C227.923 47.245 231.175 44.5111 234.118 42.0868C237.06 39.6629 240.216 37.0461 241.131 36.272C242.046 35.4979 242.794 34.9421 242.794 35.037C242.794 35.2358 237.936 41.4412 233.686 46.6722C232.082 48.6456 230.226 50.9913 229.562 51.8849L228.353 53.5098L229.717 53.6701C230.467 53.7583 232.773 53.9719 234.841 54.1448C236.909 54.3177 241.008 54.7095 243.951 55.0152C246.894 55.321 249.757 55.5854 250.314 55.6028C251.279 55.6328 251.265 55.6455 250.025 55.8727C249.309 56.0038 244.233 56.5123 238.745 57.0026C233.257 57.4929 228.54 57.9608 228.263 58.0425C227.861 58.1606 228.427 58.9647 231.028 61.9754C236.554 68.373 242.627 75.7517 243.236 76.8104C243.55 77.357 244.316 77.9672 233.643 69.1673L224.895 61.9547L224.731 63.4267C224.64 64.2362 224.372 67.5465 224.134 70.7828C223.896 74.019 223.509 78.5397 223.274 80.8288C223.039 83.1179 222.807 85.4429 222.758 85.9954L222.669 87L222.473 85.9954Z" fill="#ECC165"/>
<defs>
<radialGradient id="paint0_radial_6_3" cx="0" cy="0" r="1" gradientUnits="userSpaceOnUse" gradientTransform="translate(259.686 236.329) rotate(81.058) scale(239.237)">
<stop stop-color="#E7F5EC"/>
<stop offset="1" stop-color="#E6DEF4"/>
</radialGradient>
</defs>
</svg>
